<?xml version="1.0" encoding="iso-8859-1"?>
<!-- Generator: Adobe Illustrator 21.0.0, SVG Export Plug-In . SVG Version: 6.00 Build 0)  -->
<svg xmlns="http://www.w3.org/2000/svg" xmlns:xlink="http://www.w3.org/1999/xlink" version="1.1" id="Capa_1" x="0px" y="0px" viewBox="0 0 512 512" style="enable-background:new 0 0 512 512;" xml:space="preserve" width="512" height="512">
<g>
	<path d="M405.205,169.774c11.233-44.877,18.36-111.475-21.705-134.607C343.408,12.019,289.25,51.557,256,83.744   c-33.307-32.243-87.432-71.71-127.5-48.578c-40.061,23.129-32.943,89.718-21.706,134.607C62.132,182.421,0,209.563,0,256.003   c0,46.44,62.132,73.581,106.794,86.229C95.561,387.103,88.433,453.707,128.5,476.839c40.066,23.131,94.246-16.386,127.5-48.578   c33.195,32.134,87.41,71.725,127.5,48.578c40.066-23.132,32.939-89.729,21.705-134.607C449.867,329.585,512,302.443,512,256.003   C512,209.562,449.868,182.421,405.205,169.774z M368.5,61.147c24.465,14.126,14.465,73.972,7.572,101.51   c-19.211-4.007-39.694-7.026-61.003-8.985c-12.362-17.477-25.225-33.691-38.303-48.291C298.179,84.66,344.346,47.205,368.5,61.147z    M356.676,291.014c4.065,9.969,7.72,19.813,10.939,29.468c-9.971,2.025-20.318,3.771-30.97,5.225   C343.557,314.529,350.069,303.298,356.676,291.014z M298.471,329.575c-27.496,1.866-56.333,1.941-84.943,0   c-15.365-22.868-29.864-47.83-42.477-73.572c12.121-24.738,26.489-49.777,42.477-73.572c27.496-1.866,56.333-1.941,84.943,0   c15.366,22.869,29.864,47.829,42.477,73.572C328.826,280.744,314.459,305.78,298.471,329.575z M256,384.866   c-6.74-7.604-13.427-15.678-20.016-24.168c13.018,0.391,25.996,0.422,40.033,0C269.427,369.188,262.74,377.263,256,384.866z    M175.355,325.707c-10.652-1.454-20.999-3.199-30.97-5.225c3.219-9.655,6.874-19.499,10.939-29.468   C161.563,302.615,168.036,313.871,175.355,325.707z M155.324,220.991c-4.065-9.969-7.72-19.813-10.939-29.468   c9.971-2.026,20.318-3.771,30.97-5.225C168.43,197.498,161.917,208.732,155.324,220.991z M256,127.139   c6.74,7.604,13.427,15.678,20.016,24.168c-13.018-0.391-25.996-0.422-40.033,0C242.573,142.817,249.26,134.743,256,127.139z    M336.645,186.298c10.653,1.454,20.999,3.2,30.97,5.225c-3.219,9.655-6.873,19.499-10.939,29.468   C350.448,209.412,343.977,198.156,336.645,186.298z M143.5,61.147c24.291-14.022,70.757,23.933,91.734,44.234   c-13.078,14.6-25.941,30.814-38.303,48.291c-21.309,1.959-41.791,4.978-61.002,8.985C129.037,135.121,119.033,75.273,143.5,61.147z    M30,256.003c0-28.342,57.824-49.688,85.142-57.423c6.111,18.659,13.734,37.942,22.706,57.423   c-8.972,19.481-16.595,38.765-22.706,57.423C87.907,305.714,30,284.368,30,256.003z M143.5,450.859   c-24.466-14.126-14.464-73.971-7.572-101.51c19.211,4.007,39.693,7.026,61.002,8.985c12.362,17.477,25.225,33.691,38.303,48.291   C214.793,426.406,167.965,464.981,143.5,450.859z M368.5,450.859c-24.483,14.137-71.359-24.519-91.734-44.234   c13.078-14.6,25.941-30.814,38.303-48.291c21.309-1.959,41.792-4.978,61.003-8.985C382.964,376.882,392.966,436.732,368.5,450.859z    M396.858,313.426c-6.111-18.659-13.734-37.942-22.706-57.423c8.972-19.481,16.595-38.765,22.706-57.423   C424.095,206.292,482,227.638,482,256.003C482,284.339,424.199,305.684,396.858,313.426z"/>
	<path d="M256,211.003c-24.813,0-45,20.187-45,45s20.187,45,45,45c24.813,0,45-20.187,45-45S280.813,211.003,256,211.003z    M256,271.003c-8.271,0-15-6.729-15-15s6.729-15,15-15s15,6.729,15,15S264.271,271.003,256,271.003z"/>
</g>















</svg>
